<?xml version="1.0" standalone="no"?>
<!DOCTYPE svg PUBLIC "-//W3C//DTD SVG 20010904//EN"
 "http://www.w3.org/TR/2001/REC-SVG-20010904/DTD/svg10.dtd">
<svg version="1.0" xmlns="http://www.w3.org/2000/svg"
 width="500.000000pt" height="500.000000pt" viewBox="0 0 500.000000 500.000000"
 preserveAspectRatio="xMidYMid meet">
<metadata>
Created by potrace 1.14, written by Peter Selinger 2001-2017
</metadata>
<g transform="translate(0.000000,500.000000) scale(0.100000,-0.100000)"
fill="#000000" stroke="none">
<path d="M0 2500 l0 -2500 2500 0 2500 0 0 2500 0 2500 -2500 0 -2500 0 0
-2500z m3550 1485 c15 -8 38 -27 49 -41 l21 -27 0 -1111 0 -1110 -332 -334
c-183 -183 -345 -340 -360 -348 -23 -12 -140 -14 -733 -14 -766 0 -749 -1
-793 55 l-22 28 0 1417 0 1417 22 28 c44 56 -1 54 1101 55 880 0 1022 -2 1047
-15z"/>
<path d="M1630 2500 l0 -1250 560 0 559 0 3 275 3 275 31 31 c17 16 48 34 70
39 21 5 148 10 282 10 l242 0 -2 933 -3 932 -872 3 -873 2 0 -1250z m1022
1088 c198 -92 277 -317 180 -509 l-29 -55 52 -51 c116 -115 179 -322 125 -410
-38 -63 -37 -63 -483 -63 l-404 0 -34 23 c-102 68 -61 288 82 441 l59 63 -33
59 c-30 56 -32 64 -32 164 0 96 3 110 28 158 75 143 194 214 352 209 62 -2 93
-8 137 -29z m535 -1231 c18 -9 39 -31 48 -47 31 -61 10 -136 -48 -167 -29 -17
-81 -18 -642 -21 -335 -2 -634 0 -664 3 -157 19 -177 209 -26 246 17 4 316 7
665 6 586 -2 637 -3 667 -20z m-632 -371 c18 -8 41 -26 51 -41 22 -34 22 -103
0 -137 -36 -56 -53 -58 -424 -58 -336 0 -339 0 -373 23 -19 13 -40 39 -48 61
-20 52 0 111 48 143 34 23 37 23 373 23 269 0 346 -3 373 -14z m-32 -365 c104
-24 136 -148 56 -215 l-31 -26 -359 0 -359 0 -35 33 c-78 71 -46 182 60 208
44 10 623 10 668 0z"/>
<path d="M2414 3335 c-35 -34 -36 -36 -32 -92 4 -50 9 -60 39 -85 68 -57 175
-26 198 58 22 81 -34 154 -119 154 -42 0 -54 -5 -86 -35z"/>
<path d="M2395 2849 c-40 -20 -105 -76 -105 -91 0 -4 95 -8 210 -8 116 0 210
4 210 8 0 16 -76 81 -112 97 -53 22 -153 19 -203 -6z"/>
<path d="M3000 1523 l0 -98 95 95 c52 52 95 96 95 97 0 2 -43 3 -95 3 l-95 0
0 -97z"/>
</g>
</svg>
